<svg xmlns="http://www.w3.org/2000/svg" xmlns:xlink="http://www.w3.org/1999/xlink" aria-hidden="true" role="img" width="64" height="64" viewBox="0 0 16 16" style="color: rgb(58, 118, 245);"><path fill="currentColor" fill-rule="evenodd" d="M10.218 3.216a.75.75 0 0 0-1.436-.431l-3 10a.75.75 0 0 0 1.436.43zM4.53 4.97a.75.75 0 0 1 0 1.06L2.56 8l1.97 1.97a.75.75 0 0 1-1.06 1.06l-2.5-2.5a.75.75 0 0 1 0-1.06l2.5-2.5a.75.75 0 0 1 1.06 0m6.94 6.06a.75.75 0 0 1 0-1.06L13.44 8l-1.97-1.97a.75.75 0 0 1 1.06-1.06l2.5 2.5a.75.75 0 0 1 0 1.06l-2.5 2.5a.75.75 0 0 1-1.06 0" clip-rule="evenodd"></path></svg>